<svg width="15" height="15" viewBox="0 0 15 15" fill="none" xmlns="http://www.w3.org/2000/svg">
<path fill-rule="evenodd" clip-rule="evenodd" d="M7.5 15C11.6421 15 15 11.6421 15 7.5C15 3.35786 11.6421 0 7.5 0C3.35786 0 0 3.35786 0 7.5C0 11.6421 3.35786 15 7.5 15ZM7.88079 10.9344C7.83109 9.97771 7.80288 9.08547 7.79615 8.20196C8.40868 8.83715 9.0188 9.48716 9.65922 10.1978L10.1978 9.65922C9.48691 9.01859 8.83671 8.40827 8.20786 7.789C9.09179 7.79593 9.98443 7.82583 10.9416 7.88798V7.112C9.98254 7.16183 9.08826 7.19005 8.20261 7.20605C8.83326 6.58515 9.48629 5.97439 10.2079 5.34077L9.65922 4.79207C9.01882 5.50264 8.40872 6.15263 7.79623 6.78779C7.80308 5.90442 7.83127 5.00448 7.88079 4.05121H7.11919C7.16883 5.0068 7.19703 5.9088 7.21306 6.79423C6.59084 6.16252 5.97212 5.5039 5.3306 4.79207L4.79206 5.33061C5.50364 5.97191 6.16206 6.59042 6.80014 7.20585C5.91511 7.18982 5.01352 7.16162 4.05839 7.112V7.88798C5.01162 7.82608 5.91152 7.79618 6.79484 7.78908C6.15842 8.40283 5.50168 9.0197 4.79206 9.65922L5.34076 10.2079C5.97355 9.48725 6.59113 8.82739 7.21323 8.19547C7.19724 9.08111 7.16901 9.97537 7.11919 10.9344H7.88079Z" fill="#C0CAC4"/>
</svg>
