<svg width="19" height="19" viewBox="0 0 19 19" fill="none" xmlns="http://www.w3.org/2000/svg">
<path fill-rule="evenodd" clip-rule="evenodd" d="M5.28525 1.66637C3.44462 1.66637 1.9525 3.15849 1.9525 4.99911V13.331C1.9525 15.1716 3.44462 16.6637 5.28525 16.6637H13.6171C15.4577 16.6637 16.9498 15.1716 16.9498 13.331V4.99911C16.9498 3.15849 15.4577 1.66637 13.6171 1.66637H5.28525ZM0.286133 4.99911C0.286133 2.23818 2.52431 0 5.28525 0H13.6171C16.378 0 18.6162 2.23818 18.6162 4.99911V13.331C18.6162 16.0919 16.378 18.3301 13.6171 18.3301H5.28525C2.52431 18.3301 0.286133 16.0919 0.286133 13.331V4.99911Z" fill="white"/>
<path fill-rule="evenodd" clip-rule="evenodd" d="M9.85387 6.65649C9.3338 6.57937 8.80267 6.6682 8.336 6.91034C7.86933 7.15249 7.4909 7.53561 7.25453 8.00523C7.01816 8.47485 6.93588 9.00704 7.01941 9.52611C7.10294 10.0452 7.34801 10.5247 7.71977 10.8965C8.09153 11.2682 8.57105 11.5133 9.09012 11.5968C9.60919 11.6803 10.1414 11.5981 10.611 11.3617C11.0806 11.1253 11.4637 10.7469 11.7059 10.2802C11.948 9.81356 12.0369 9.28242 11.9597 8.76236C11.8811 8.23188 11.6339 7.74076 11.2547 7.36155C10.8755 6.98234 10.3843 6.73515 9.85387 6.65649ZM7.56852 5.43123C8.3463 5.02766 9.23152 4.87961 10.0983 5.00814C10.9824 5.13925 11.801 5.55123 12.433 6.18325C13.065 6.81527 13.477 7.63379 13.6081 8.51793C13.7366 9.3847 13.5886 10.2699 13.185 11.0477C12.7814 11.8255 12.1429 12.4562 11.3602 12.8502C10.5775 13.2441 9.6905 13.3812 8.82538 13.242C7.96026 13.1028 7.16107 12.6944 6.54147 12.0748C5.92187 11.4552 5.51341 10.656 5.3742 9.79085C5.23499 8.92573 5.37212 8.03874 5.76607 7.25605C6.16002 6.47335 6.79074 5.83481 7.56852 5.43123Z" fill="white"/>
</svg>
