<svg width="19" height="19" viewBox="0 0 19 19" fill="none" xmlns="http://www.w3.org/2000/svg">
<path fill-rule="evenodd" clip-rule="evenodd" d="M9.16667 1.66667C5.02453 1.66667 1.66667 5.02453 1.66667 9.16667C1.66667 13.3088 5.02453 16.6667 9.16667 16.6667C13.3088 16.6667 16.6667 13.3088 16.6667 9.16667C16.6667 5.02453 13.3088 1.66667 9.16667 1.66667ZM0 9.16667C0 4.10406 4.10406 0 9.16667 0C14.2293 0 18.3333 4.10406 18.3333 9.16667C18.3333 14.2293 14.2293 18.3333 9.16667 18.3333C4.10406 18.3333 0 14.2293 0 9.16667Z" fill="#022C14"/>
<path d="M9.75592 5.24408C9.43049 4.91864 8.90285 4.91864 8.57741 5.24408C8.25197 5.56951 8.25197 6.09715 8.57741 6.42259L10.4882 8.33333H5.83333C5.3731 8.33333 5 8.70643 5 9.16667C5 9.6269 5.3731 10 5.83333 10H10.4882L8.57741 11.9107C8.25197 12.2362 8.25197 12.7638 8.57741 13.0893C8.90285 13.4147 9.43049 13.4147 9.75592 13.0893L13.0893 9.75592C13.4147 9.43049 13.4147 8.90285 13.0893 8.57741L9.75592 5.24408Z" fill="#022C14"/>
</svg>
