<svg width="16" height="16" viewBox="0 0 16 16" fill="none" xmlns="http://www.w3.org/2000/svg">
<path d="M8.28152 0.499756C4.04893 0.499756 0.616211 3.93248 0.616211 8.16506C0.616211 12.3976 4.04893 15.8304 8.28152 15.8304C12.5141 15.8304 15.9468 12.3976 15.9468 8.16506C15.9468 3.93248 12.5141 0.499756 8.28152 0.499756ZM13.114 12.2477C12.6807 11.8477 11.9642 11.0145 11.6976 9.73143C12.9973 9.54813 13.9305 9.28151 14.5471 9.06489C14.3804 10.248 13.8639 11.3478 13.114 12.2477ZM2.01597 9.04825C2.63252 9.26488 3.56569 9.53149 4.86546 9.7148C4.6155 10.9979 3.8823 11.8477 3.44904 12.231C2.69917 11.3478 2.1826 10.248 2.01597 9.04825ZM3.06577 4.56568C3.59901 5.13225 4.74882 6.56535 4.91546 8.3817C3.29908 8.13174 2.34923 7.76515 1.96597 7.59851C2.08261 6.48204 2.46587 5.44886 3.06577 4.56568ZM14.5804 7.59851C14.1971 7.76515 13.264 8.14841 11.6309 8.3817C11.7976 6.58202 12.964 5.13225 13.4806 4.56568C14.0971 5.44886 14.4804 6.48204 14.5804 7.59851ZM10.2978 8.53166C9.88123 8.56498 9.44798 8.58167 8.94806 8.59833V1.86617C10.2812 2.01615 11.6309 2.63272 12.6141 3.54922C11.9975 4.19911 10.3978 6.08209 10.2978 8.53166ZM7.61497 8.61497C7.11506 8.59831 6.6818 8.58166 6.26521 8.54834C6.14857 6.08211 4.54885 4.21575 3.93229 3.56586C4.91545 2.64936 6.26521 2.03283 7.59831 1.88285V8.61497H7.61497ZM6.18189 9.86475C6.63181 9.89808 7.11506 9.93143 7.61497 9.93143V14.4473C6.44851 14.314 5.31537 13.864 4.39886 13.1475C4.99876 12.5976 5.89861 11.5145 6.18189 9.86475ZM8.94806 9.94807C9.44798 9.93141 9.93122 9.91476 10.3811 9.88143C10.6811 11.5145 11.5643 12.6143 12.1642 13.1809C11.2643 13.8807 10.1145 14.3473 8.94806 14.4806V9.94807Z" fill="white"/>
</svg>
