<svg width="13" height="13" viewBox="0 0 13 13" fill="none" xmlns="http://www.w3.org/2000/svg">
<path d="M6.46376 1C3.44682 1 1 3.44682 1 6.46376C1 9.48071 3.44682 11.9275 6.46376 11.9275C9.48071 11.9275 11.9275 9.48071 11.9275 6.46376C11.9275 3.44682 9.48071 1 6.46376 1ZM9.90831 9.37381C9.59949 9.08874 9.08874 8.49484 8.8987 7.58026C9.82516 7.4496 10.4903 7.25956 10.9298 7.10515C10.811 7.94847 10.4428 8.73241 9.90831 9.37381ZM1.99773 7.09329C2.43721 7.2477 3.10236 7.43774 4.02882 7.5684C3.85066 8.48298 3.32804 9.08873 3.01922 9.36192C2.48472 8.7324 2.11651 7.94849 1.99773 7.09329ZM2.74602 3.89816C3.12611 4.302 3.94569 5.3235 4.06446 6.61818C2.91232 6.44001 2.23528 6.17871 1.96209 6.05993C2.04524 5.26412 2.31842 4.52768 2.74602 3.89816ZM10.9536 6.05993C10.6804 6.17871 10.0152 6.45189 8.85119 6.61818C8.96996 5.33538 9.8014 4.302 10.1696 3.89816C10.6091 4.52768 10.8823 5.26412 10.9536 6.05993ZM7.90097 6.72507C7.60402 6.74882 7.2952 6.76072 6.93887 6.7726V1.97397C7.88909 2.08087 8.85119 2.52036 9.55198 3.17363C9.1125 3.63686 7.97223 4.97904 7.90097 6.72507ZM5.98865 6.78446C5.63232 6.77258 5.3235 6.76071 5.02656 6.73696C4.94341 4.97905 3.80315 3.64873 3.36367 3.18549C4.06446 2.53222 5.02656 2.09276 5.97678 1.98586V6.78446H5.98865ZM4.96717 7.67529C5.28787 7.69904 5.63232 7.72281 5.98865 7.72281V10.9417C5.15721 10.8466 4.34952 10.5259 3.69624 10.0152C4.12384 9.62323 4.76525 8.85118 4.96717 7.67529ZM6.93887 7.73467C7.2952 7.7228 7.63966 7.71093 7.96035 7.68718C8.17415 8.85119 8.80368 9.63513 9.23128 10.039C8.58988 10.5378 7.77031 10.8704 6.93887 10.9654V7.73467Z" fill="#022C14"/>
</svg>
