<svg width="14" height="14" viewBox="0 0 14 14" fill="none" xmlns="http://www.w3.org/2000/svg">
<path fill-rule="evenodd" clip-rule="evenodd" d="M3.85336 1.18777C2.54138 1.18777 1.47781 2.25134 1.47781 3.56332V9.5022C1.47781 10.8142 2.54138 11.8777 3.85336 11.8777H9.79223C11.1042 11.8777 12.1678 10.8142 12.1678 9.5022V3.56332C12.1678 2.25134 11.1042 1.18777 9.79223 1.18777H3.85336ZM0.290039 3.56332C0.290039 1.59535 1.88539 0 3.85336 0H9.79223C11.7602 0 13.3556 1.59535 13.3556 3.56332V9.5022C13.3556 11.4702 11.7602 13.0655 9.79223 13.0655H3.85336C1.88539 13.0655 0.290039 11.4702 0.290039 9.5022V3.56332Z" fill="#022C14"/>
<path fill-rule="evenodd" clip-rule="evenodd" d="M7.10984 4.74465C6.73914 4.68968 6.36055 4.75299 6.02792 4.92559C5.69528 5.09819 5.42554 5.37128 5.25706 5.70602C5.08857 6.04076 5.02993 6.4201 5.08946 6.79009C5.149 7.16008 5.32369 7.50187 5.58867 7.76686C5.85366 8.03185 6.19546 8.20653 6.56545 8.26607C6.93544 8.32561 7.31478 8.26696 7.64952 8.09848C7.98425 7.93 8.25734 7.66025 8.42994 7.32762C8.60254 6.99498 8.66586 6.61639 8.61089 6.2457C8.55482 5.86757 8.37862 5.51751 8.10832 5.24721C7.83803 4.97691 7.48796 4.80072 7.10984 4.74465ZM5.48086 3.8713C6.03526 3.58363 6.66624 3.4781 7.28407 3.56972C7.91427 3.66317 8.49771 3.95683 8.94821 4.40733C9.3987 4.85782 9.69236 5.44126 9.78582 6.07147C9.87743 6.68929 9.7719 7.32028 9.48424 7.87467C9.19658 8.42906 8.74143 8.87863 8.18353 9.15944C7.62563 9.44025 6.99339 9.53799 6.37674 9.43876C5.7601 9.33953 5.19044 9.04839 4.74879 8.60674C4.30714 8.1651 4.016 7.59544 3.91678 6.97879C3.81755 6.36214 3.91529 5.72991 4.19609 5.17201C4.4769 4.61411 4.92647 4.15896 5.48086 3.8713Z" fill="#022C14"/>
</svg>
