<svg width="19" height="18" viewBox="0 0 19 18" fill="none" xmlns="http://www.w3.org/2000/svg">
<path fill-rule="evenodd" clip-rule="evenodd" d="M12.4978 6.66548C11.3929 6.66548 10.3333 7.10439 9.55203 7.88565C8.77076 8.66692 8.33185 9.72654 8.33185 10.8314V15.8305H9.99823V10.8314C9.99823 10.1685 10.2616 9.53271 10.7303 9.06396C11.1991 8.5952 11.8349 8.33185 12.4978 8.33185C13.1607 8.33185 13.7965 8.5952 14.2652 9.06396C14.734 9.53271 14.9973 10.1685 14.9973 10.8314V15.8305H16.6637V10.8314C16.6637 9.72654 16.2248 8.66692 15.4435 7.88565C14.6623 7.10439 13.6027 6.66548 12.4978 6.66548ZM12.4978 4.99911C10.951 4.99911 9.46749 5.61359 8.37372 6.70735C7.27996 7.80112 6.66548 9.28459 6.66548 10.8314V16.6637C6.66548 17.1239 7.03851 17.4969 7.49867 17.4969H10.8314C11.2916 17.4969 11.6646 17.1239 11.6646 16.6637V10.8314C11.6646 10.6104 11.7524 10.3985 11.9086 10.2423C12.0649 10.086 12.2768 9.99822 12.4978 9.99822C12.7188 9.99822 12.9307 10.086 13.0869 10.2423C13.2432 10.3985 13.331 10.6104 13.331 10.8314V16.6637C13.331 17.1239 13.704 17.4969 14.1642 17.4969H17.4969C17.9571 17.4969 18.3301 17.1239 18.3301 16.6637V10.8314C18.3301 9.28459 17.7156 7.80112 16.6218 6.70735C15.5281 5.61359 14.0446 4.99911 12.4978 4.99911Z" fill="white"/>
<path fill-rule="evenodd" clip-rule="evenodd" d="M0 6.66548C0 6.20533 0.37303 5.8323 0.833185 5.8323H4.16593C4.62608 5.8323 4.99911 6.20533 4.99911 6.66548V16.6637C4.99911 17.1239 4.62608 17.4969 4.16593 17.4969H0.833185C0.37303 17.4969 0 17.1239 0 16.6637V6.66548ZM1.66637 7.49867V15.8305H3.33274V7.49867H1.66637Z" fill="white"/>
<path fill-rule="evenodd" clip-rule="evenodd" d="M2.49956 1.66637C2.0394 1.66637 1.66637 2.0394 1.66637 2.49956C1.66637 2.95971 2.0394 3.33274 2.49956 3.33274C2.95971 3.33274 3.33274 2.95971 3.33274 2.49956C3.33274 2.0394 2.95971 1.66637 2.49956 1.66637ZM0 2.49956C0 1.11909 1.11909 0 2.49956 0C3.88002 0 4.99911 1.11909 4.99911 2.49956C4.99911 3.88002 3.88002 4.99911 2.49956 4.99911C1.11909 4.99911 0 3.88002 0 2.49956Z" fill="white"/>
</svg>
