<svg width="14" height="13" viewBox="0 0 14 13" fill="none" xmlns="http://www.w3.org/2000/svg">
<path fill-rule="evenodd" clip-rule="evenodd" d="M8.90831 4.7511C8.12076 4.7511 7.36548 5.06395 6.8086 5.62082C6.25172 6.1777 5.93887 6.93299 5.93887 7.72053V11.2839H7.12665V7.72053C7.12665 7.24801 7.31436 6.79483 7.64848 6.46071C7.98261 6.12658 8.43578 5.93887 8.90831 5.93887C9.38083 5.93887 9.83401 6.12658 10.1681 6.46071C10.5023 6.79483 10.69 7.24801 10.69 7.72053V11.2839H11.8777V7.72053C11.8777 6.93299 11.5649 6.1777 11.008 5.62082C10.4511 5.06395 9.69585 4.7511 8.90831 4.7511ZM8.90831 3.56332C7.80575 3.56332 6.74834 4.00131 5.96872 4.78094C5.18909 5.56057 4.7511 6.61797 4.7511 7.72053V11.8777C4.7511 12.2057 5.01699 12.4716 5.34498 12.4716H7.72053C8.04853 12.4716 8.31442 12.2057 8.31442 11.8777V7.72053C8.31442 7.56302 8.37699 7.41197 8.48837 7.30059C8.59974 7.18922 8.7508 7.12665 8.90831 7.12665C9.06582 7.12665 9.21687 7.18922 9.32825 7.30059C9.43963 7.41197 9.5022 7.56302 9.5022 7.72053V11.8777C9.5022 12.2057 9.76809 12.4716 10.0961 12.4716H12.4716C12.7996 12.4716 13.0655 12.2057 13.0655 11.8777V7.72053C13.0655 6.61797 12.6275 5.56057 11.8479 4.78094C11.0683 4.00131 10.0109 3.56332 8.90831 3.56332Z" fill="#022C14"/>
<path fill-rule="evenodd" clip-rule="evenodd" d="M0 4.7511C0 4.4231 0.265892 4.15721 0.593887 4.15721H2.96944C3.29743 4.15721 3.56332 4.4231 3.56332 4.7511V11.8777C3.56332 12.2057 3.29743 12.4716 2.96944 12.4716H0.593887C0.265892 12.4716 0 12.2057 0 11.8777V4.7511ZM1.18777 5.34498V11.2839H2.37555V5.34498H1.18777Z" fill="#022C14"/>
<path fill-rule="evenodd" clip-rule="evenodd" d="M1.78166 1.18777C1.45367 1.18777 1.18777 1.45367 1.18777 1.78166C1.18777 2.10966 1.45367 2.37555 1.78166 2.37555C2.10966 2.37555 2.37555 2.10966 2.37555 1.78166C2.37555 1.45367 2.10966 1.18777 1.78166 1.18777ZM0 1.78166C0 0.797677 0.797677 0 1.78166 0C2.76565 0 3.56332 0.797677 3.56332 1.78166C3.56332 2.76565 2.76565 3.56332 1.78166 3.56332C0.797677 3.56332 0 2.76565 0 1.78166Z" fill="#022C14"/>
</svg>
