<svg width="15" height="13" viewBox="0 0 15 13" fill="none" xmlns="http://www.w3.org/2000/svg">
<path d="M4.95056 12.4123C3.40645 12.4123 1.80296 11.9965 0.37763 11.1651C0.140075 11.0463 0.0212973 10.7494 0.080686 10.5118C0.140075 10.2743 0.37763 10.0961 0.615184 10.0961C1.62479 10.1555 2.6344 9.91793 3.52523 9.50221C1.32785 8.13627 0.733962 6.23583 0.674573 4.75111C0.615184 3.02884 1.20907 1.60351 1.26846 1.54412C1.32785 1.36596 1.50602 1.18779 1.74357 1.18779C1.98113 1.18779 2.15929 1.24718 2.27807 1.42535C3.28768 2.85067 4.83178 3.74151 6.55406 3.86028C6.55406 2.91006 6.96978 2.01923 7.68244 1.36596C8.9296 0.29696 10.7707 0.29696 12.0178 1.36596C12.4929 1.18779 12.968 0.950236 13.3838 0.653292C13.5619 0.534515 13.8589 0.534515 14.037 0.653292C14.2152 0.772069 14.334 1.06901 14.2746 1.30657C14.0964 2.13801 13.6807 2.91006 13.0868 3.56334C13.0868 3.68212 13.0868 3.74151 13.0868 3.86028C13.0868 7.12666 11.6615 9.85854 9.10777 11.2839C7.86061 12.0559 6.43528 12.4123 4.95056 12.4123ZM2.99073 10.9869C4.95056 11.462 6.91039 11.2245 8.57327 10.2743C10.7113 9.0271 11.9584 6.65155 11.9584 3.86028C11.9584 3.74151 11.9584 3.62273 11.899 3.50395C11.8397 3.32578 11.899 3.08823 12.0772 2.96945C12.196 2.85067 12.3148 2.67251 12.4335 2.55373C12.3148 2.61312 12.1366 2.67251 12.0178 2.67251C11.7803 2.7319 11.5427 2.67251 11.4239 2.49434C10.6519 1.6629 9.34533 1.54412 8.51388 2.31618C7.97939 2.67251 7.74183 3.2664 7.74183 3.86028V4.45417C7.74183 4.75111 7.50428 5.04806 7.14794 5.04806C5.18812 5.10745 3.34707 4.33539 2.04051 2.96945C1.68418 4.51356 1.5654 7.42361 5.00995 8.90832C5.18812 9.0271 5.36628 9.20527 5.36628 9.44282C5.36628 9.68038 5.30689 9.85854 5.12873 9.97732C4.41606 10.4524 3.7034 10.8088 2.99073 10.9869Z" fill="#022C14"/>
</svg>
