<svg width="21" height="18" viewBox="0 0 21 18" fill="none" xmlns="http://www.w3.org/2000/svg">
<path d="M7.18343 17.4136C5.01715 17.4136 2.76755 16.8303 0.767903 15.6639C0.434629 15.4972 0.267992 15.0806 0.351311 14.7474C0.434629 14.4141 0.767903 14.1641 1.10118 14.1641C2.51759 14.2474 3.93401 13.9142 5.18379 13.3309C2.101 11.4146 1.26781 8.74842 1.1845 6.66546C1.10118 4.24922 1.93436 2.24958 2.01768 2.16626C2.101 1.9163 2.35096 1.66635 2.68423 1.66635C3.0175 1.66635 3.26746 1.74967 3.4341 1.99962C4.85051 3.99927 7.01679 5.24905 9.43303 5.41568C9.43303 4.08259 10.0163 2.83281 11.0161 1.9163C12.7658 0.416571 15.3486 0.416571 17.0983 1.9163C17.7649 1.66635 18.4314 1.33307 19.0147 0.916482C19.2646 0.749845 19.6812 0.749845 19.9312 0.916482C20.1811 1.08312 20.3478 1.49971 20.2644 1.83299C20.0145 2.99945 19.4313 4.08259 18.5981 4.99909C18.5981 5.16573 18.5981 5.24905 18.5981 5.41568C18.5981 9.9982 16.5984 13.8309 13.0157 15.8305C11.266 16.9136 9.2664 17.4136 7.18343 17.4136ZM4.43392 15.4139C7.18343 16.0805 9.93294 15.7472 12.2659 14.4141C15.2653 12.6644 17.015 9.33165 17.015 5.41568C17.015 5.24905 17.015 5.08241 16.9317 4.91577C16.8484 4.66582 16.9317 4.33254 17.1817 4.1659C17.3483 3.99927 17.5149 3.74931 17.6816 3.58268C17.5149 3.66599 17.265 3.74931 17.0983 3.74931C16.7651 3.83263 16.4318 3.74931 16.2652 3.49936C15.182 2.3329 13.349 2.16626 12.1825 3.2494C11.4327 3.74931 11.0994 4.5825 11.0994 5.41568V6.24887C11.0994 6.66546 10.7661 7.08205 10.2662 7.08205C7.51671 7.16537 4.93383 6.08223 3.10082 4.1659C2.60091 6.33219 2.43427 10.4148 7.26675 12.4978C7.51671 12.6644 7.76666 12.9144 7.76666 13.2476C7.76666 13.5809 7.68334 13.8309 7.43339 13.9975C6.43356 14.664 5.43374 15.164 4.43392 15.4139Z" fill="white"/>
</svg>
